<svg width="600" height="600" viewBox="0 0 600 600" fill="none" xmlns="http://www.w3.org/2000/svg">
<g clip-path="url(#clip0_3_2)">
<mask id="mask0_3_2" style="mask-type:luminance" maskUnits="userSpaceOnUse" x="0" y="0" width="600" height="600">
<path d="M0 0H600V600H0V0Z" fill="white"/>
</mask>
<g mask="url(#mask0_3_2)">
<path fill-rule="evenodd" clip-rule="evenodd" d="M342.277 9.063L538.248 97.057C575.801 113.92 600 151.52 600 193.012V406.988C600 448.479 575.801 486.081 538.248 502.943L342.277 590.937C328.983 596.909 314.574 599.998 300 600C285.426 599.998 271.017 596.909 257.723 590.937L61.752 502.943C24.199 486.081 0 448.48 0 406.989V193.011C0 151.52 24.199 113.918 61.752 97.057L257.723 9.063C271.017 3.09054 285.426 0.00175042 300 0C314.565 0 328.969 3.088 342.277 9.063Z" fill="#202020"/>
<path opacity="0.5" d="M332.324 42.925C322.159 38.3617 311.143 36.0017 300 36C288.857 36.0017 277.841 38.3617 267.676 42.925L76.8 128.553C51.993 139.681 36 164.561 36 192.021V407.978C36 435.439 51.993 460.318 76.8 471.446L267.676 557.075C277.841 561.638 288.857 563.998 299.999 564C311.142 563.998 322.158 561.638 332.323 557.075L523.199 471.446C548.006 460.318 564 435.439 564 407.978V192.021C564 164.561 548.006 139.681 523.199 128.553L332.325 42.926L332.324 42.925Z" stroke="#FF684F" stroke-width="24"/>
<path d="M337.402 20.02C325.642 14.7348 312.896 12.0015 300.003 12C287.11 12.0015 274.364 14.7348 262.604 20.02L66.632 108.052C33.41 122.973 12.002 156.25 12.002 192.969V407.033C12.002 443.752 33.41 477.029 66.63 491.951L262.604 579.98C274.364 585.265 287.11 587.998 300.003 588C312.896 587.998 325.642 585.264 337.402 579.979L533.374 491.95C566.596 477.028 588.003 443.751 588.003 407.032V192.969C588.003 156.249 566.596 122.972 533.375 108.051L337.402 20.02Z" stroke="#FF684F" stroke-width="24"/>
<path fill-rule="evenodd" clip-rule="evenodd" d="M203.161 173.984H231.395L306.31 449.894H278.072L203.161 173.984Z" fill="#FF684F"/>
<path fill-rule="evenodd" clip-rule="evenodd" d="M380.645 280.773H352.217L306.311 449.894H334.537L380.645 280.773Z" fill="#E04126"/>
<path fill-rule="evenodd" clip-rule="evenodd" d="M431.355 197.914H403.218L369.561 321.435H397.583L431.355 197.914Z" fill="#FF684F"/>
<path fill-rule="evenodd" clip-rule="evenodd" d="M174.924 173.984H203.161L278.073 449.894C269.951 449.891 262.058 447.202 255.625 442.245C249.164 437.265 244.512 430.306 242.38 422.432L174.924 173.984Z" fill="#E04126"/>
<path fill-rule="evenodd" clip-rule="evenodd" d="M231.397 173.984C239.519 173.987 247.411 176.678 253.844 181.635C260.306 186.614 264.958 193.574 267.09 201.448L334.546 449.894H306.31L231.397 173.984Z" fill="#FF9877"/>
<path fill-rule="evenodd" clip-rule="evenodd" d="M203.161 173.984L209.671 197.914H178.077C171.012 197.914 164.142 195.571 158.526 191.247C152.901 186.907 148.852 180.844 147 173.984H203.161Z" fill="#FF684F"/>
<path d="M442.094 241.818C453.646 233.671 456.468 217.627 448.402 205.97L424.207 171L384.656 189.77C371.834 195.855 366.331 211.271 372.366 224.201L372.378 224.228L415.699 203.669L442.094 241.816V241.818Z" fill="#FF684F"/>
</g>
</g>
<defs>
<clipPath id="clip0_3_2">
<rect width="600" height="600" fill="white"/>
</clipPath>
</defs>
</svg>
